<svg width="35" height="43" viewBox="0 0 35 43" fill="none" xmlns="http://www.w3.org/2000/svg">
<path d="M33.2607 26.7784L31.0477 23.2194C30.5829 22.4261 30.1625 20.9254 30.1625 20.0463V14.622C30.1625 9.58364 27.1084 5.23134 22.7045 3.19455C21.5537 1.22207 19.4292 0 16.9948 0C14.5826 0 12.4139 1.26495 11.2631 3.25887C6.94764 5.33854 3.96002 9.64796 3.96002 14.622V20.0463C3.96002 20.9254 3.53954 22.4261 3.0748 23.198L0.839622 26.7784C-0.0455982 28.2149 -0.244772 29.8015 0.30849 31.2594C0.839623 32.6959 2.10106 33.8107 3.73872 34.3467C8.03204 35.7618 12.5467 36.4478 17.0612 36.4478C21.5758 36.4478 26.0904 35.7618 30.3838 34.3682C31.9329 33.8751 33.1279 32.7387 33.7033 31.2594C34.2787 29.78 34.1238 28.1506 33.2607 26.7784Z" fill="#292D32"/>
<path d="M23.2794 38.6132C22.3499 41.1003 19.8934 42.8798 17.0165 42.8798C15.2681 42.8798 13.542 42.1937 12.3248 40.9716C11.6166 40.3284 11.0855 39.4708 10.7756 38.5918C11.0633 38.6347 11.351 38.6561 11.6609 38.699C12.1699 38.7633 12.701 38.8276 13.2321 38.8705C14.4936 38.9777 15.7772 39.042 17.0607 39.042C18.3222 39.042 19.5836 38.9777 20.8229 38.8705C21.2876 38.8276 21.7524 38.8062 22.195 38.7419C22.5491 38.699 22.9032 38.6561 23.2794 38.6132Z" fill="#292D32"/>
</svg>
