<svg width="35" height="35" viewBox="0 0 35 35" fill="none" xmlns="http://www.w3.org/2000/svg">
<path d="M17.5 0C7.83266 0 0 7.83266 0 17.5C0 27.1673 7.83266 35 17.5 35C27.1673 35 35 27.1673 35 17.5C35 7.83266 27.1673 0 17.5 0ZM21.5292 24.7046L15.3054 20.1815C15.0867 20.0192 14.9597 19.7651 14.9597 19.497V7.62097C14.9597 7.15524 15.3407 6.77419 15.8065 6.77419H19.1935C19.6593 6.77419 20.0403 7.15524 20.0403 7.62097V17.3377L24.5212 20.5978C24.9022 20.873 24.9798 21.4022 24.7046 21.7833L22.7147 24.5212C22.4395 24.8952 21.9103 24.9798 21.5292 24.7046Z" fill="#D9D9D9"/>
</svg>
