<svg width="22" height="22" viewBox="0 0 22 22" fill="none" xmlns="http://www.w3.org/2000/svg">
<path d="M11 0C4.92077 0 0 4.91979 0 11C0 17.0792 4.91979 22 11 22C13.1359 22 15.2289 21.3728 17.006 20.2159C17.5385 19.8693 17.6547 19.1386 17.2523 18.647L16.8009 18.0955C16.4606 17.6799 15.8615 17.578 15.4093 17.868C14.1013 18.707 12.5663 19.1613 11 19.1613C6.49985 19.1613 2.83871 15.5002 2.83871 11C2.83871 6.49985 6.49985 2.83871 11 2.83871C15.4416 2.83871 19.1613 5.39439 19.1613 9.93548C19.1613 11.6558 18.2257 13.4724 16.5812 13.6477C15.8117 13.6275 15.8311 13.0774 15.9834 12.316L17.0228 6.94415C17.1499 6.2873 16.6467 5.67742 15.9777 5.67742H13.9826C13.8353 5.67742 13.6931 5.73164 13.5832 5.82975C13.4734 5.92787 13.4034 6.063 13.3868 6.20937L13.3864 6.21345C12.7345 5.41945 11.5923 5.24762 10.7264 5.24762C7.41839 5.24762 4.6129 8.008 4.6129 11.9656C4.6129 14.8621 6.2445 16.6615 8.87097 16.6615C10.0678 16.6615 11.4156 15.9679 12.1972 14.9612C12.6195 16.4739 13.9986 16.4738 15.3335 16.4738C20.1641 16.4738 22 13.2975 22 9.93548C22 3.88783 17.122 0 11 0ZM10.0384 13.5029C9.05154 13.5029 8.43851 12.81 8.43851 11.6946C8.43851 9.69889 9.80371 8.46867 11.039 8.46867C12.0278 8.46867 12.6181 9.14468 12.6181 10.277C12.6181 12.2757 11.1156 13.5029 10.0384 13.5029Z" fill="#00AD5C"/>
</svg>
