<svg width="29" height="29" viewBox="0 0 29 29" fill="none" xmlns="http://www.w3.org/2000/svg">
<path d="M9.59297 9.74271L10.251 9.64249L10.5351 9.04057L14.0745 1.54274C14.1785 1.32262 14.3438 1.24935 14.4978 1.24988C14.6556 1.25042 14.8239 1.32908 14.9261 1.54382C14.9262 1.54406 14.9263 1.5443 14.9264 1.54454L18.465 9.04057L18.7491 9.64249L19.4071 9.74271L27.3266 10.949L27.3275 10.9492C27.4998 10.9753 27.6502 11.0946 27.7196 11.3179C27.7894 11.5428 27.7404 11.7689 27.5828 11.9292L27.5825 11.9295L21.8529 17.7628L21.4083 18.2155L21.5113 18.8416L22.8663 27.0809C22.8663 27.0811 22.8663 27.0812 22.8664 27.0813C22.909 27.3426 22.8046 27.5387 22.6544 27.6516C22.505 27.7638 22.3424 27.7775 22.1866 27.6919L22.1864 27.6918L15.1018 23.8011L14.5001 23.4706L13.8984 23.8011L6.81369 27.6918L6.80971 27.694C6.65556 27.7794 6.49545 27.7664 6.34664 27.6544C6.19593 27.5409 6.09092 27.343 6.13383 27.0809L7.48883 18.8416L7.5918 18.2155L7.14718 17.7628L1.41766 11.9295L1.41731 11.9292C1.25973 11.7689 1.21072 11.5428 1.28056 11.3179C1.34993 11.0946 1.50029 10.9753 1.6726 10.9492L1.67355 10.949L9.59297 9.74271Z" stroke="#B2B2B2" stroke-width="2.5"/>
</svg>
