<svg width="13" height="15" viewBox="0 0 13 15" fill="none" xmlns="http://www.w3.org/2000/svg">
<path d="M5.92191 14.6974C1.66514 8.5263 0.875 7.89296 0.875 5.625C0.875 2.51839 3.39339 0 6.5 0C9.60661 0 12.125 2.51839 12.125 5.625C12.125 7.89296 11.3349 8.5263 7.07809 14.6974C6.79874 15.1009 6.20123 15.1009 5.92191 14.6974ZM6.5 7.96875C7.79442 7.96875 8.84375 6.91942 8.84375 5.625C8.84375 4.33058 7.79442 3.28125 6.5 3.28125C5.20558 3.28125 4.15625 4.33058 4.15625 5.625C4.15625 6.91942 5.20558 7.96875 6.5 7.96875Z" fill="white"/>
</svg>
