<svg width="79" height="102" viewBox="0 0 79 102" fill="none" xmlns="http://www.w3.org/2000/svg">
<g filter="url(#filter0_d_135_15)">
<path d="M35.8516 92.1035C8.98664 53.4315 4 49.4625 4 35.25C4 15.7819 19.8938 0 39.5 0C59.1062 0 75 15.7819 75 35.25C75 49.4625 70.0134 53.4315 43.1484 92.1035C41.3854 94.6323 37.6144 94.6321 35.8516 92.1035ZM39.5 49.9375C47.6693 49.9375 54.2917 43.3617 54.2917 35.25C54.2917 27.1383 47.6693 20.5625 39.5 20.5625C31.3307 20.5625 24.7083 27.1383 24.7083 35.25C24.7083 43.3617 31.3307 49.9375 39.5 49.9375Z" fill="#00AD5C"/>
</g>
<defs>
<filter id="filter0_d_135_15" x="0" y="0" width="79" height="102" filterUnits="userSpaceOnUse" color-interpolation-filters="sRGB">
<feFlood flood-opacity="0" result="BackgroundImageFix"/>
<feColorMatrix in="SourceAlpha" type="matrix" values="0 0 0 0 0 0 0 0 0 0 0 0 0 0 0 0 0 0 127 0" result="hardAlpha"/>
<feOffset dy="4"/>
<feGaussianBlur stdDeviation="2"/>
<feComposite in2="hardAlpha" operator="out"/>
<feColorMatrix type="matrix" values="0 0 0 0 0 0 0 0 0 0 0 0 0 0 0 0 0 0 0.25 0"/>
<feBlend mode="normal" in2="BackgroundImageFix" result="effect1_dropShadow_135_15"/>
<feBlend mode="normal" in="SourceGraphic" in2="effect1_dropShadow_135_15" result="shape"/>
</filter>
</defs>
</svg>
