<svg width="56" height="57" viewBox="0 0 56 57" fill="none" xmlns="http://www.w3.org/2000/svg">
<path d="M42.8084 15.9019C42.6155 15.8744 42.4226 15.8744 42.2297 15.9019C37.958 15.7641 34.5681 12.264 34.5681 7.96474C34.5681 3.58275 38.1233 0 42.5329 0C46.9148 0 50.4976 3.55519 50.4976 7.96474C50.47 12.264 47.0802 15.7641 42.8084 15.9019Z" fill="#00AD5C"/>
<path d="M51.7997 35.0019C48.713 37.0689 44.3861 37.8406 40.39 37.317C41.4373 35.0571 41.9885 32.5491 42.016 29.9034C42.016 27.1474 41.4097 24.5293 40.2522 22.2418C44.331 21.6906 48.6579 22.4623 51.7721 24.5293C56.1266 27.3955 56.1265 32.1082 51.7997 35.0019Z" fill="#00AD5C"/>
<path d="M12.2475 15.9019C12.4404 15.8744 12.6334 15.8744 12.8263 15.9019C17.098 15.7641 20.4879 12.264 20.4879 7.96474C20.4879 3.55519 16.9327 0 12.5231 0C8.14113 0 4.58594 3.55519 4.58594 7.96474C4.58594 12.264 7.97577 15.7641 12.2475 15.9019Z" fill="#00AD5C"/>
<path d="M12.5534 29.9039C12.5534 32.5772 13.1322 35.1127 14.1794 37.4002C10.2935 37.8136 6.24226 36.9868 3.26582 35.03C-1.08861 32.1363 -1.08861 27.4236 3.26582 24.5298C6.2147 22.5455 10.3762 21.7463 14.2897 22.1872C13.1597 24.5023 12.5534 27.1204 12.5534 29.9039Z" fill="#00AD5C"/>
<path d="M27.9033 38.2252C27.6828 38.1977 27.4348 38.1977 27.1867 38.2252C22.1158 38.0599 18.0645 33.8984 18.0645 28.7723C18.092 23.5359 22.3087 19.2917 27.5726 19.2917C32.8089 19.2917 37.0531 23.5359 37.0531 28.7723C37.0255 33.8984 33.0018 38.0599 27.9033 38.2252Z" fill="#00AD5C"/>
<path d="M18.9463 43.9317C14.7848 46.7152 14.7848 51.2901 18.9463 54.0461C23.6866 57.2155 31.4585 57.2155 36.1987 54.0461C40.3602 51.2626 40.3602 46.6877 36.1987 43.9317C31.486 40.7623 23.7142 40.7623 18.9463 43.9317Z" fill="#00AD5C"/>
</svg>
