<svg width="26" height="26" viewBox="0 0 26 26" fill="none" xmlns="http://www.w3.org/2000/svg">
<path d="M24.6373 11.7068H23.1547C22.4754 7.13281 18.8597 3.51714 14.2858 2.83784V1.35522C14.2858 1.03164 14.0234 0.769287 13.6998 0.769287H11.7467C11.4231 0.769287 11.1608 1.03164 11.1608 1.35522V2.83784C6.58679 3.51714 2.97112 7.13281 2.29182 11.7068H0.809204C0.48562 11.7068 0.223267 11.9691 0.223267 12.2927V14.2458C0.223267 14.5694 0.48562 14.8318 0.809204 14.8318H2.29182C2.97112 19.4058 6.58679 23.0214 11.1608 23.7007V25.1833C11.1608 25.5069 11.4231 25.7693 11.7467 25.7693H13.6998C14.0234 25.7693 14.2858 25.5069 14.2858 25.1833V23.7007C18.8597 23.0214 22.4754 19.4058 23.1547 14.8318H24.6373C24.9609 14.8318 25.2233 14.5694 25.2233 14.2458V12.2927C25.2233 11.9691 24.9609 11.7068 24.6373 11.7068ZM14.2858 20.5268V18.5427C14.2858 18.2191 14.0234 17.9568 13.6998 17.9568H11.7467C11.4231 17.9568 11.1608 18.2191 11.1608 18.5427V20.5268C8.32024 19.9212 6.07205 17.6757 5.46575 14.8318H7.44983C7.77341 14.8318 8.03577 14.5694 8.03577 14.2458V12.2927C8.03577 11.9691 7.77341 11.7068 7.44983 11.7068H5.46575C6.07131 8.86626 8.31687 6.61807 11.1608 6.01177V7.99585C11.1608 8.31943 11.4231 8.58179 11.7467 8.58179H13.6998C14.0234 8.58179 14.2858 8.31943 14.2858 7.99585V6.01177C17.1263 6.61733 19.3745 8.86289 19.9808 11.7068H17.9967C17.6731 11.7068 17.4108 11.9691 17.4108 12.2927V14.2458C17.4108 14.5694 17.6731 14.8318 17.9967 14.8318H19.9808C19.3752 17.6723 17.1297 19.9205 14.2858 20.5268ZM14.2858 13.2693C14.2858 14.1322 13.5862 14.8318 12.7233 14.8318C11.8603 14.8318 11.1608 14.1322 11.1608 13.2693C11.1608 12.4063 11.8603 11.7068 12.7233 11.7068C13.5862 11.7068 14.2858 12.4063 14.2858 13.2693Z" fill="white"/>
</svg>
