<svg width="50" height="50" viewBox="0 0 50 50" fill="none" xmlns="http://www.w3.org/2000/svg">
<g clip-path="url(#clip0_243_56)">
<path d="M48.8281 21.875H45.8629C44.5043 12.7271 37.2729 5.4957 28.125 4.13711V1.17188C28.125 0.524707 27.6003 0 26.9531 0H23.0469C22.3997 0 21.875 0.524707 21.875 1.17188V4.13711C12.7271 5.4957 5.4957 12.7271 4.13711 21.875H1.17188C0.524707 21.875 0 22.3997 0 23.0469V26.9531C0 27.6003 0.524707 28.125 1.17188 28.125H4.13711C5.4957 37.2729 12.7271 44.5043 21.875 45.8629V48.8281C21.875 49.4753 22.3997 50 23.0469 50H26.9531C27.6003 50 28.125 49.4753 28.125 48.8281V45.8629C37.2729 44.5043 44.5043 37.2729 45.8629 28.125H48.8281C49.4753 28.125 50 27.6003 50 26.9531V23.0469C50 22.3997 49.4753 21.875 48.8281 21.875ZM28.125 39.515V35.5469C28.125 34.8997 27.6003 34.375 26.9531 34.375H23.0469C22.3997 34.375 21.875 34.8997 21.875 35.5469V39.515C16.1939 38.3039 11.6976 33.8128 10.485 28.125H14.4531C15.1003 28.125 15.625 27.6003 15.625 26.9531V23.0469C15.625 22.3997 15.1003 21.875 14.4531 21.875H10.485C11.6961 16.1939 16.1872 11.6976 21.875 10.485V14.4531C21.875 15.1003 22.3997 15.625 23.0469 15.625H26.9531C27.6003 15.625 28.125 15.1003 28.125 14.4531V10.485C33.8061 11.6961 38.3024 16.1872 39.515 21.875H35.5469C34.8997 21.875 34.375 22.3997 34.375 23.0469V26.9531C34.375 27.6003 34.8997 28.125 35.5469 28.125H39.515C38.3039 33.8061 33.8128 38.3024 28.125 39.515ZM28.125 25C28.125 26.7259 26.7259 28.125 25 28.125C23.2741 28.125 21.875 26.7259 21.875 25C21.875 23.2741 23.2741 21.875 25 21.875C26.7259 21.875 28.125 23.2741 28.125 25Z" fill="#00AD5C"/>
</g>
<defs>
<clipPath id="clip0_243_56">
<rect width="50" height="50" fill="white"/>
</clipPath>
</defs>
</svg>
