<svg width="35" height="43" viewBox="0 0 35 43" fill="none" xmlns="http://www.w3.org/2000/svg">
<path d="M15.7015 42.1324C2.4582 24.4421 0 22.6265 0 16.125C0 7.21938 7.83499 0 17.5 0C27.165 0 35 7.21938 35 16.125C35 22.6265 32.5418 24.4421 19.2985 42.1324C18.4294 43.2892 16.5705 43.2891 15.7015 42.1324ZM17.5 22.8437C21.5271 22.8437 24.7917 19.8357 24.7917 16.125C24.7917 12.4143 21.5271 9.40625 17.5 9.40625C13.4729 9.40625 10.2083 12.4143 10.2083 16.125C10.2083 19.8357 13.4729 22.8437 17.5 22.8437Z" fill="#D9D9D9"/>
</svg>
