<?xml version="1.0" encoding="UTF-8"?>
<svg id="_레이어_1" data-name="레이어 1" xmlns="http://www.w3.org/2000/svg" viewBox="0 0 297 80">
  <defs>
    <style>
      .cls-1 {
        fill: #16a459;
      }
    </style>
  </defs>
  <path class="cls-1" d="m23.72,20.14c2.07,0,4.09.43,6.04,1.22,1.83.85,3.48,2.01,4.94,3.48,1.34,1.52,2.38,3.23,3.23,5.19.79,1.95,1.22,4.09,1.22,6.28s-.43,4.33-1.22,6.28c-.85,2.01-1.89,3.78-3.23,5.25-1.46,1.46-3.11,2.62-4.94,3.42-1.95.85-3.97,1.28-6.04,1.28-2.2,0-4.15-.43-5.98-1.28-1.89-.79-3.54-1.95-4.88-3.42-1.46-1.46-2.56-3.23-3.36-5.25-.85-1.95-1.22-4.03-1.22-6.28s.37-4.33,1.22-6.28c.79-1.95,1.89-3.66,3.36-5.19,1.34-1.46,2.99-2.62,4.88-3.48,1.83-.79,3.78-1.22,5.98-1.22Zm0,23.91c.85,0,1.77-.18,2.68-.61.85-.37,1.59-.92,2.26-1.65.61-.61,1.1-1.46,1.52-2.44.37-.98.55-1.95.55-3.05,0-1.04-.18-2.07-.55-3.05-.43-.92-.92-1.71-1.52-2.44-.67-.61-1.4-1.16-2.26-1.59-.92-.37-1.83-.61-2.68-.61-.98,0-1.83.24-2.62.61-.85.43-1.59.98-2.2,1.59-.67.73-1.16,1.52-1.53,2.44-.43.98-.61,2.01-.61,3.05,0,1.1.18,2.07.61,3.05.37.98.85,1.83,1.53,2.44.61.73,1.34,1.28,2.2,1.65.79.43,1.65.61,2.62.61Zm29.59-14.95h8.66v8.11h-8.66v19.52h-8.97V10.63h8.97v18.48Z"/>
  <path class="cls-1" d="m100.4,20.14c2.07,0,4.09.43,6.04,1.22,1.83.85,3.48,2.01,4.94,3.48,1.34,1.52,2.38,3.23,3.23,5.19.79,1.95,1.22,4.09,1.22,6.28s-.43,4.33-1.22,6.28c-.85,2.01-1.89,3.78-3.23,5.25-1.46,1.46-3.11,2.62-4.94,3.42-1.95.85-3.97,1.28-6.04,1.28-2.2,0-4.15-.43-5.98-1.28-1.89-.79-3.54-1.95-4.88-3.42-1.46-1.46-2.56-3.23-3.36-5.25-.85-1.95-1.22-4.03-1.22-6.28s.37-4.33,1.22-6.28c.79-1.95,1.89-3.66,3.36-5.19,1.34-1.46,2.99-2.62,4.88-3.48,1.83-.79,3.78-1.22,5.98-1.22Zm0,23.91c.85,0,1.77-.18,2.68-.61.85-.37,1.59-.92,2.26-1.65.61-.61,1.1-1.46,1.52-2.44.37-.98.55-1.95.55-3.05,0-1.04-.18-2.07-.55-3.05-.43-.92-.92-1.71-1.52-2.44-.67-.61-1.4-1.16-2.26-1.59-.92-.37-1.83-.61-2.68-.61-.98,0-1.83.24-2.62.61-.85.43-1.59.98-2.2,1.59-.67.73-1.16,1.52-1.53,2.44-.43.98-.61,2.01-.61,3.05,0,1.1.18,2.07.61,3.05.37.98.85,1.83,1.53,2.44.61.73,1.34,1.28,2.2,1.65.79.43,1.65.61,2.62.61Zm30.69,12.69h-8.91V10.63h8.91v46.12Z"/>
  <path class="cls-1" d="m174.82,16.91l18.42,32.45-7.08,5.06-11.35-20.25-11.41,20.25-7.08-5.06,18.48-32.45Zm29.28,12.2h8.66v8.11h-8.66v19.52h-8.97V10.63h8.97v18.48Z"/>
  <path class="cls-1" d="m268.15,42.65h-30.87v-18.24h19.28v-3.23h-17.69v-7.38h26.17v18h-19.28v3.42h22.39v7.44Zm-16.17,14.21c0-1.71.37-3.29,1.1-4.88.67-1.46,1.65-2.81,2.99-3.96,1.22-1.1,2.62-1.95,4.33-2.68,1.65-.61,3.42-.98,5.31-.98s3.66.37,5.37.98c1.65.73,3.11,1.59,4.39,2.68,1.22,1.16,2.2,2.5,2.93,3.96.67,1.59,1.04,3.17,1.04,4.88s-.37,3.42-1.04,4.94c-.73,1.46-1.71,2.81-2.93,3.9-1.28,1.1-2.75,2.01-4.39,2.68-1.71.61-3.48.98-5.37.98s-3.66-.37-5.31-.98c-1.71-.67-3.11-1.59-4.33-2.68-1.34-1.1-2.32-2.44-2.99-3.9-.73-1.53-1.1-3.17-1.1-4.94Zm8.24,0c0,1.4.55,2.56,1.65,3.54,1.04.98,2.32,1.46,3.84,1.46s2.81-.49,3.9-1.46c1.04-.98,1.59-2.13,1.59-3.54s-.55-2.5-1.59-3.48c-1.1-.98-2.38-1.46-3.9-1.46s-2.81.49-3.84,1.46c-1.1.98-1.65,2.13-1.65,3.48Zm19.7-13.48h-8.85V10.63h8.85v12.69h8.78v8.11h-8.78v11.96Z"/>
</svg>