<svg width="41" height="36" viewBox="0 0 41 36" fill="none" xmlns="http://www.w3.org/2000/svg">
<path d="M26.8805 35.8651C26.0614 35.8651 25.2422 35.6937 24.5754 35.3698L14.5737 30.3595C14.0022 30.0737 12.8782 30.0928 12.3258 30.4167L7.82981 32.9885C5.88665 34.0934 3.88633 34.2458 2.38133 33.3505C0.857279 32.4741 0 30.6834 0 28.4354V9.91809C0 8.18448 1.14304 6.22227 2.64804 5.36499L10.897 0.640428C12.2877 -0.159699 14.4023 -0.216851 15.8311 0.507073L25.8327 5.51739C26.4043 5.80315 27.5092 5.76505 28.0807 5.46024L32.5576 2.90745C34.5008 1.80252 36.5011 1.65011 38.0061 2.54549C39.5302 3.42182 40.3874 5.21258 40.3874 7.46056V25.9969C40.3874 27.7305 39.2444 29.6927 37.7394 30.55L29.4905 35.2746C28.7665 35.6556 27.814 35.8651 26.8805 35.8651ZM13.526 27.3114C14.3451 27.3114 15.1643 27.4829 15.8311 27.8067L25.8327 32.817C26.4043 33.1028 27.5092 33.0647 28.0807 32.7599L36.3297 28.0353C36.9393 27.6924 37.5298 26.6637 37.5298 25.9779V7.44151C37.5298 6.24132 37.1869 5.34594 36.5583 5.00302C35.9486 4.66011 34.9961 4.79347 33.9674 5.38404L29.4905 7.93682C28.0998 8.73695 25.9852 8.7941 24.5564 8.07018L14.5547 3.05986C13.9832 2.7741 12.8782 2.8122 12.3067 3.11701L4.05779 7.84157C3.44817 8.18448 2.8576 9.21322 2.8576 9.91809V28.4544C2.8576 29.6546 3.20051 30.55 3.81013 30.8929C4.41975 31.2549 5.37228 31.1025 6.42007 30.5119L10.897 27.9591C11.6399 27.521 12.5925 27.3114 13.526 27.3114Z" fill="#777777"/>
<path d="M13.3766 28.8922C12.5955 28.8922 11.9478 28.2445 11.9478 27.4634V2.6976C11.9478 1.91652 12.5955 1.2688 13.3766 1.2688C14.1576 1.2688 14.8053 1.91652 14.8053 2.6976V27.4634C14.8053 28.2445 14.1576 28.8922 13.3766 28.8922Z" fill="#777777"/>
<path d="M27.0357 34.6076C26.2547 34.6076 25.6069 33.9599 25.6069 33.1788V7.68905C25.6069 6.90798 26.2547 6.26025 27.0357 6.26025C27.8168 6.26025 28.4645 6.90798 28.4645 7.68905V33.1788C28.4645 33.9599 27.8168 34.6076 27.0357 34.6076Z" fill="#777777"/>
</svg>
