<svg width="39" height="39" viewBox="0 0 39 39" fill="none" xmlns="http://www.w3.org/2000/svg">
<path d="M38.8944 19.4472C38.8944 8.7318 30.1626 0 19.4472 0C8.7318 0 0 8.7318 0 19.4472C0 25.0869 2.4309 30.1626 6.28145 33.7215C6.28145 33.7409 6.28145 33.7409 6.26201 33.7604C6.45648 33.9549 6.68985 34.1104 6.88432 34.2855C7.001 34.3827 7.09824 34.4799 7.21492 34.5577C7.56497 34.8494 7.95392 35.1217 8.32341 35.3939C8.45954 35.4912 8.57623 35.569 8.71236 35.6662C9.08185 35.919 9.4708 36.1524 9.87919 36.3663C10.0153 36.4441 10.1709 36.5413 10.307 36.6191C10.696 36.833 11.1044 37.0275 11.5322 37.2025C11.6878 37.2803 11.8434 37.3581 11.9989 37.4165C12.4268 37.5915 12.8546 37.7471 13.2825 37.8832C13.438 37.9415 13.5936 37.9999 13.7492 38.0388C14.2159 38.1749 14.6827 38.2916 15.1494 38.4083C15.2855 38.4472 15.4216 38.4861 15.5772 38.5055C16.1217 38.6222 16.6663 38.7 17.2302 38.7583C17.308 38.7583 17.3858 38.7778 17.4636 38.7972C18.1248 38.8556 18.786 38.8944 19.4472 38.8944C20.1084 38.8944 20.7696 38.8556 21.4114 38.7972C21.4892 38.7972 21.567 38.7778 21.6448 38.7583C22.2087 38.7 22.7533 38.6222 23.2978 38.5055C23.4339 38.4861 23.57 38.4277 23.7256 38.4083C24.1923 38.2916 24.6785 38.1943 25.1258 38.0388C25.2814 37.9804 25.437 37.9221 25.5925 37.8832C26.0204 37.7276 26.4677 37.5915 26.8761 37.4165C27.0316 37.3581 27.1872 37.2803 27.3428 37.2025C27.7512 37.0275 28.1596 36.833 28.568 36.6191C28.7236 36.5413 28.8597 36.4441 28.9958 36.3663C29.3848 36.1329 29.7737 35.919 30.1626 35.6662C30.2988 35.5884 30.4155 35.4912 30.5516 35.3939C30.9405 35.1217 31.31 34.8494 31.6601 34.5577C31.7768 34.4605 31.874 34.3632 31.9907 34.2855C32.2046 34.1104 32.4185 33.9354 32.613 33.7604C32.613 33.7409 32.613 33.7409 32.5935 33.7215C36.4635 30.1626 38.8944 25.0869 38.8944 19.4472ZM29.0542 29.1125C23.784 25.5731 15.1494 25.5731 9.8403 29.1125C8.98462 29.6765 8.28452 30.3377 7.7011 31.0572C4.74512 28.0623 2.91708 23.959 2.91708 19.4472C2.91708 10.3265 10.3265 2.91708 19.4472 2.91708C28.568 2.91708 35.9774 10.3265 35.9774 19.4472C35.9774 23.959 34.1493 28.0623 31.1933 31.0572C30.6294 30.3377 29.9098 29.6765 29.0542 29.1125Z" fill="#777777"/>
<path d="M19.447 9.58691C15.4214 9.58691 12.1543 12.854 12.1543 16.8796C12.1543 20.8274 15.2464 24.0362 19.3498 24.1529H19.5248H19.6609H19.6998C23.6282 24.0168 26.7203 20.8274 26.7397 16.8796C26.7397 12.854 23.4726 9.58691 19.447 9.58691Z" fill="#777777"/>
</svg>
