<svg width="22" height="22" viewBox="0 0 22 22" fill="none" xmlns="http://www.w3.org/2000/svg">
<path d="M21.3726 15.546L16.56 13.4834C16.3544 13.3958 16.1259 13.3774 15.9089 13.4308C15.692 13.4843 15.4982 13.6068 15.3569 13.7799L13.2256 16.3839C9.88072 14.8068 7.18888 12.115 5.61182 8.77012L8.21577 6.63883C8.38923 6.49775 8.512 6.304 8.56549 6.08691C8.61899 5.86982 8.6003 5.6412 8.51226 5.43568L6.44972 0.623098C6.35309 0.401551 6.18218 0.220665 5.96647 0.111631C5.75075 0.00259757 5.50375 -0.0277499 5.26806 0.0258218L0.799233 1.05709C0.571997 1.10956 0.369256 1.23751 0.224101 1.42005C0.0789458 1.60258 -5.23459e-05 1.82893 2.60232e-08 2.06215C2.60232e-08 13.0838 8.93336 22 19.9378 22C20.1711 22.0001 20.3976 21.9212 20.5802 21.776C20.7628 21.6309 20.8908 21.4281 20.9433 21.2008L21.9746 16.7319C22.0278 16.4951 21.9968 16.2471 21.887 16.0307C21.7771 15.8142 21.5952 15.6428 21.3726 15.546Z" fill="#00AD5C"/>
</svg>
