<svg width="41" height="40" viewBox="0 0 41 40" fill="none" xmlns="http://www.w3.org/2000/svg">
<path d="M30.7226 39.971C29.7303 39.971 28.4572 39.6527 26.8659 38.7166L21.2681 35.4029C20.6877 35.0659 19.5644 35.0659 19.0028 35.4029L13.3863 38.7166C10.0725 40.6824 8.12546 39.8961 7.24553 39.2596C6.38433 38.623 5.03637 36.9942 5.91629 33.2499L7.24553 27.5023C7.39531 26.9032 7.09576 25.8735 6.64644 25.4242L2.00345 20.7812C-0.318049 18.4597 -0.130832 16.4752 0.187438 15.5016C0.505708 14.5281 1.51668 12.8057 4.73682 12.2627L10.7091 11.2705C11.2707 11.1769 12.0757 10.5778 12.3191 10.0723L15.6329 3.46352C17.1306 0.449322 19.0964 0 20.1261 0C21.1558 0 23.1215 0.449322 24.6193 3.46352L27.9143 10.0536C28.1764 10.5591 28.9814 11.1582 29.5431 11.2518L35.5153 12.244C38.7542 12.787 39.7652 14.5093 40.0647 15.4829C40.3643 16.4565 40.5515 18.441 38.2487 20.7625L33.6057 25.4242C33.1564 25.8735 32.8756 26.8845 33.0066 27.5023L34.3359 33.2499C35.1971 36.9942 33.8678 38.623 33.0066 39.2596C32.5386 39.5965 31.7897 39.971 30.7226 39.971ZM20.1261 32.3325C21.0434 32.3325 21.9608 32.5572 22.6909 32.9878L28.2887 36.3015C29.9175 37.275 30.9472 37.275 31.3404 36.9942C31.7335 36.7134 32.0144 35.7211 31.6025 33.8864L30.2732 28.1388C29.9175 26.5849 30.4979 24.5817 31.6212 23.4397L36.2642 18.7967C37.1816 17.8793 37.5934 16.9807 37.4062 16.3629C37.2003 15.745 36.3391 15.2395 35.066 15.0336L29.0938 14.0413C27.6522 13.7979 26.0796 12.6372 25.4243 11.3267L22.1293 4.7366C21.5302 3.53841 20.7813 2.82698 20.1261 2.82698C19.4708 2.82698 18.7219 3.53841 18.1416 4.7366L14.8278 11.3267C14.1726 12.6372 12.6 13.7979 11.1584 14.0413L5.20486 15.0336C3.93179 15.2395 3.07059 15.745 2.86465 16.3629C2.65871 16.9807 3.08931 17.898 4.00667 18.7967L8.64966 23.4397C9.77297 24.563 10.3533 26.5849 9.99763 28.1388L8.66839 33.8864C8.23779 35.7399 8.53733 36.7134 8.93049 36.9942C9.32365 37.275 10.3346 37.2563 11.9821 36.3015L17.5799 32.9878C18.2913 32.5572 19.2087 32.3325 20.1261 32.3325Z" fill="#777777"/>
</svg>
