<svg width="22" height="22" viewBox="0 0 22 22" fill="none" xmlns="http://www.w3.org/2000/svg">
<path d="M0 10.8332V2.0625C0 0.923399 0.923399 0 2.0625 0H10.8332C11.3802 2.86033e-06 11.9048 0.217303 12.2916 0.604098L21.3959 9.70841C22.2014 10.5139 22.2014 11.8198 21.3959 12.6252L12.6252 21.3959C11.8198 22.2014 10.5139 22.2014 9.70841 21.3959L0.604098 12.2916C0.217303 11.9048 2.86033e-06 11.3802 0 10.8332ZM4.8125 2.75C3.6734 2.75 2.75 3.6734 2.75 4.8125C2.75 5.9516 3.6734 6.875 4.8125 6.875C5.9516 6.875 6.875 5.9516 6.875 4.8125C6.875 3.6734 5.9516 2.75 4.8125 2.75Z" fill="#00AD5C"/>
</svg>
